<?xml version="1.0" encoding="UTF-8"?>
<!-- Generator: Adobe Illustrator 16.0.0, SVG Export Plug-In . SVG Version: 6.00 Build 0)  -->
<!DOCTYPE svg PUBLIC "-//W3C//DTD SVG 1.1//EN" "http://www.w3.org/Graphics/SVG/1.1/DTD/svg11.dtd">
<svg version="1.1" id="Ebene_1" xmlns="http://www.w3.org/2000/svg" xmlns:xlink="http://www.w3.org/1999/xlink" x="0px" y="0px" width="97.879px" height="126.005px" viewBox="3.727 -12.675 97.879 126.005" enable-background="new 3.727 -12.675 97.879 126.005" xml:space="preserve">
<g>
	<path fill="#7A6A58" d="M101.606,26.265c0,27.029-21.91,38.94-48.939,38.94c-27.029,0-48.94-11.912-48.94-38.94   c0-27.029,21.911-38.94,48.94-38.94C79.696-12.675,101.606-0.764,101.606,26.265z"/>
	<g>
		<g>
			<defs>
				<path id="SVGID_1_" d="M101.606,26.265c0,27.029-21.91,38.94-48.939,38.94c-27.029,0-48.94-11.912-48.94-38.94      c0-27.029,21.911-38.94,48.94-38.94C79.696-12.675,101.606-0.764,101.606,26.265z"/>
			</defs>
			<clipPath id="SVGID_2_">
				<use xlink:href="#SVGID_1_" overflow="visible"/>
			</clipPath>
			<g clip-path="url(#SVGID_2_)">
				<path fill="#FFFFFF" d="M-6.859,24.34c0.074,2.176,7.525-0.207,9.234-0.05c10.151-0.497,13.844-8.512,20.297-14.692      C28.124,4.895,35.394,4.55,42.05,3.036c2.455-0.422,5-1.78,7.443-1.616c0.543,0.342,1.035,0.286,1.561-0.013      c1.338-0.444,3.105-2.642,4.365-1.229c1.539,3.342-4.094,6.355-6.912,7.506c-5.711,1.204-9.824,2.232-12.885,7.571l-0.072,0.168      c-0.713,1.752-1.039,3.13-1.199,4.015c1.172-0.877,2.068-1.757,2.242-3.051c7.018,2.135,13.938,4.209,21.033,5.975      c5.863,0.699,11.578,2.172,17.361,3.289c3.066,0.739,11.307,0.65,8.795,5.683c-5.766-0.622-11.16-0.22-16.727-0.646      c-4.078-0.602-8.16-1.348-12.257-1.875c-0.293-0.043-1.731-0.675-2.133,1.452c1.071-0.562,0.299-1.375,1.963-0.969      c3.578,0.62,6.392,1.022,9.972,1.635c5.901,0.837,12.203,0.622,17.897,1.317c1.813,0.142,4.416,0.816,5.703,1.861      c1.616,2.086-1.265,3.475-3.205,3.375c-0.763,0.168-1.05,0.221-2.33-0.049c-3.713-0.689-7.668,0.441-11.334,0.52      c-7.664,0.238-12.447-0.309-19.49-1.596c-0.161,0.238-0.571-0.363-1.174,1.918c0.072,0.031,0.146,0.063,0.217,0.094      c0.216-0.488,0.472-1.254,1.091-1.276c2.696,0.312,5.391,0.66,8.086,1.002c1.305,0.166,9.633,0.468,11.791,0.345      c1.998-0.029,8.879-1.359,11.453,0.047c2.483,1.142,0.518,4.031-1.447,4.467c-2.264,0.434-4.683,1.613-6.951,1.339      c-1.564-3.87-11.596-1.397-15.254-1.716c-2.627-0.366-9.525,1.83-10.641-0.756c-0.184,0.965-0.324,1.699-0.463,2.435      c0.051,0.015,0.102,0.026,0.152,0.04c0.133-0.505,0.264-1.012,0.395-1.518l0.242-0.021c0.066,0.265,0.134,0.526,0.236,0.939      c5.666-0.271,10.534-0.672,15.299-0.691c2.604-0.15,6.283-0.998,8.849,0.594c5.002,6.201-19.822,5.416-23.107,6.252      c-22.688,5.553-29.397-6.408-43.457-0.4"/>
				<g>
					<path fill="#4F3C30" d="M35.55,15.424c-0.713,1.752-1.039,3.13-1.199,4.015c1.172-0.877,2.068-1.757,2.242-3.051       c7.018,2.135,13.938,4.209,21.033,5.975c5.863,0.699,11.578,2.172,17.361,3.289c3.066,0.739,11.307,0.65,8.795,5.683       c-5.766-0.622-11.16-0.22-16.727-0.646c-4.078-0.602-8.16-1.348-12.257-1.875c-0.293-0.043-1.731-0.675-2.133,1.452       c1.071-0.562,0.299-1.375,1.963-0.969c3.578,0.62,6.392,1.022,9.972,1.635c5.901,0.837,12.203,0.622,17.897,1.317       c1.813,0.142,4.416,0.816,5.703,1.861c1.616,2.086-1.265,3.475-3.205,3.375c-0.763,0.168-1.05,0.221-2.33-0.049       c-3.713-0.689-7.668,0.441-11.334,0.52c-7.664,0.238-12.447-0.309-19.49-1.596c-0.161,0.238-0.571-0.363-1.174,1.918       c0.072,0.031,0.146,0.063,0.217,0.094c0.216-0.488,0.472-1.254,1.091-1.276c2.696,0.312,5.391,0.66,8.086,1.002       c1.305,0.166,9.633,0.468,11.791,0.345c1.998-0.029,8.879-1.359,11.453,0.047c2.483,1.142,0.518,4.031-1.447,4.467       c-2.264,0.434-4.683,1.613-6.951,1.339c-1.564-3.87-11.596-1.397-15.254-1.716c-2.627-0.366-9.525,1.83-10.641-0.756       c-0.184,0.965-0.324,1.699-0.463,2.436c0.051,0.015,0.102,0.026,0.152,0.04c0.133-0.505,0.264-1.012,0.395-1.518l0.242-0.021       c0.066,0.265,0.134,0.526,0.236,0.94c5.666-0.271,10.534-0.672,15.299-0.691c2.604-0.15,6.283-0.998,8.849,0.594       c5.002,6.201-19.822,5.416-23.107,6.252c-22.688,5.553-29.397-6.408-43.457-0.4c0.199,0.355,0.381,0.682,0.57,1.019       c10.182-4.853,20.205,3.322,30.691,2.052c7.938-0.972,15.896-1.886,23.843-2.82c4.016-0.867,10.36,0.265,12.891-3.467       c2.524-2.621,9.76-0.916,10.027-5.873c-0.156-1.633,2.051-1.254,2.877-2.224c1.842-1.519,1.485-4.315-0.658-5.483       c-0.674-0.563-2.484-0.489-2.168-1.717c1.262-7.037-12.457-6.014-16.959-7.65c-10.15-1.27-19.771-4.596-29.595-7.307       c-0.99-0.279-1.027-0.334-0.611-1.279c1.504-3.963,6.07-4.012,9.553-5.07c3.391-0.938,6.1-2.879,8.199-5.686       c2.074-2.549-0.291-6.311-3.49-4.799c-6.06,1.484-11.937,3.818-18.205,4.27C17.692,5.7,17.715,20.811,4.288,22.797       C0.59,23.431-3.149,23.776-6.859,24.34c0.074,2.176,7.525-0.207,9.234-0.05c10.151-0.497,13.844-8.512,20.297-14.692       C28.124,4.895,35.394,4.55,42.05,3.036c2.455-0.422,5-1.78,7.443-1.616c0.543,0.342,1.035,0.286,1.561-0.013       c1.338-0.444,3.105-2.642,4.365-1.229c1.539,3.342-4.094,6.355-6.912,7.506c-5.711,1.204-9.824,2.232-12.885,7.571"/>
					<path fill="#CABA9F" d="M99.339,1.248c-3.418,0.142-6.967,2.587-9.846,4.437C87.372,7.048,65.136,18.073,61.55,18.858       c-4.734,1.036-6.104,1.099-10.881,1.914c-4.777,0.816-9.645,2.533-12.857,6.162c-1.545,1.744-2.643,3.879-3.164,6.15       c-0.266,1.158-0.006,2.831,1.182,2.869l1.145,1.211c-0.049,0.123-0.104,0.243-0.145,0.369       c-0.385,1.197-0.357,2.484-0.324,3.742c0.02,0.779,0.045,1.586,0.387,2.285c0.391,0.799,1.141,1.354,1.908,1.803       c1.494,0.872,3.158,1.449,4.871,1.689c0.387,0.056,0.793,0.09,1.16-0.045c0.367-0.137,0.68-0.494,0.641-0.883v-0.129       c0.922-0.043,1.918-0.123,2.465,0.182c1.531,0.853,3.402,0.938,5.107,0.545c1.707-0.396,3.274-1.239,4.759-2.17       c5.155-3.234,9.508-7.594,14.452-11.141c10.826-7.768,22.382-10.57,32.022-19.768L99.339,1.248z"/>
					<path fill="#4F3C30" d="M99.397,0.694c-2.597,0.115-5.222,2.383-7.672,3.291c-2.521,0.934-14.197,7.018-19.388,9.282       c-5.7,2.488-12.737,5.802-18.825,6.55c-4.98,0.611-10.155,1.752-14.2,4.903c-2.213,1.726-3.953,4.043-4.9,6.69       c-0.574,1.604-1.303,4.738,1.172,5.092c0.74,0.105,1.461-0.959,0.49-1.098c-1.215-0.172-0.729-2.314-0.523-3.021       c0.363-1.261,0.916-2.483,1.627-3.585c1.334-2.068,3.238-3.696,5.396-4.859c4.541-2.449,9.744-2.928,14.789-3.439       s10.951-4.291,15.631-6.33c4.229-1.844,15.221-7.287,17.891-8.641c2.586-1.313,5.541-3.6,8.396-3.728       C100.12,1.764,100.382,0.649,99.397,0.694"/>
					<path fill="#4F3C30" d="M45.198,28.845c-2.568,0.569-4.627,2.249-6.291,4.22c-0.906,1.072-1.813,2.248-2.428,3.516       c-0.629,1.295-0.742,2.691-0.725,4.111c0.014,1.246-0.012,2.594,0.752,3.648c0.76,1.053,2.08,1.718,3.24,2.227       c1.424,0.623,6.248,2.391,6.463-0.488c0.057-0.781-1.422-0.604-1.473,0.094c-0.064,0.859-2.945-0.156-3.316-0.289       c-1-0.359-2.002-0.825-2.85-1.471c-0.926-0.705-1.254-1.605-1.316-2.743c-0.059-1.077-0.088-2.201,0.092-3.269       c0.34-2.014,1.824-3.804,3.152-5.287c1.354-1.51,2.971-2.765,4.98-3.211C46.394,29.7,46.103,28.644,45.198,28.845"/>
					<path fill="#4F3C30" d="M50.954,36.005c-3.787,1.568-9.057,7.459-3.598,10.511c4.971,2.778,10.855-1.517,14.67-4.403       c4.82-3.645,9.211-7.777,14.371-10.964c4.838-2.985,9.985-5.411,15.016-8.047c5.506-2.886,8.898-5.067,13.439-9.356       c0.598-0.563-0.826-0.504-1.15-0.199c-7.219,6.816-14.467,9.66-23.096,14.305c-4.402,2.37-8.568,5.033-12.461,8.176       c-4.189,3.383-8.328,7.531-13.314,9.725c-2.701,1.187-7.256,1.279-8.273-2.26c-0.861-2.984,2.537-5.943,4.955-6.945       C52.448,36.157,51.589,35.741,50.954,36.005"/>
				</g>
			</g>
		</g>
	</g>
</g>
<g>
	<path fill="#4F3C30" d="M19.522,84.87l17.651-0.262c0.842,0.262,1.264,0.684,1.264,1.264c0,1.453-0.596,2.18-1.787,2.18   c-2.179,0-4.489,0.059-6.93,0.175c-0.146,2.499-0.218,4.38-0.218,5.644c0,1.266,0,2.07,0,2.42l0.174,15.297   c0,0.901-0.232,1.425-0.697,1.569c-0.349,0.116-0.784,0.175-1.308,0.175c-0.843,0-1.307-0.479-1.395-1.438   c-0.174-2.237-0.262-6.414-0.262-12.53s0.088-9.799,0.262-11.049c-0.61,0.029-1.511,0.044-2.702,0.044   c-1.191,0-2.674-0.015-4.445-0.044c-0.465,0-0.828-0.146-1.09-0.437c-0.261-0.289-0.392-0.646-0.392-1.066s0.181-0.835,0.544-1.242   C18.554,85.163,18.999,84.927,19.522,84.87z"/>
	<path fill="#4F3C30" d="M46.021,84.433c0.726,0,1.336,0.319,1.83,0.959s1.134,1.961,1.917,3.966   c1.832,4.736,3.617,12.16,5.361,22.271c0.028,0.115,0.043,0.283,0.043,0.5c0,0.219-0.138,0.451-0.414,0.697   c-0.275,0.247-0.669,0.371-1.177,0.371c-0.509,0-0.937-0.124-1.285-0.371c-0.349-0.246-0.582-0.652-0.696-1.22   c-0.117-0.567-0.336-1.679-0.654-3.334c-0.697-3.69-1.162-5.606-1.396-5.754c-0.349-0.202-1.504-0.421-3.465-0.653   s-3.262-0.349-3.9-0.349c-0.64,0-1.018,0.06-1.134,0.174c-0.522,0.466-1.235,3.996-2.136,10.591   c-0.116,0.553-0.668,0.828-1.655,0.828c-0.988,0-1.482-0.421-1.482-1.264c0-2.092,0.77-6.087,2.31-11.985   c1.54-5.897,2.818-9.807,3.836-11.724C43.202,85.668,44.567,84.433,46.021,84.433z M45.846,89.271   c-0.436,0-1.191,1.286-2.266,3.856c-1.075,2.571-1.613,4.162-1.613,4.772c0,0.146,0.029,0.247,0.088,0.306   c0.232,0.232,1.147,0.436,2.745,0.609c1.598,0.174,2.659,0.262,3.182,0.262s0.813-0.035,0.872-0.108   c0.058-0.072,0.087-0.306,0.087-0.697s-0.392-1.99-1.177-4.794C46.979,90.674,46.34,89.271,45.846,89.271z"/>
	<path fill="#4F3C30" d="M54.649,84.87l17.65-0.262c0.842,0.262,1.264,0.684,1.264,1.264c0,1.453-0.596,2.18-1.787,2.18   c-2.178,0-4.488,0.059-6.93,0.175c-0.146,2.499-0.218,4.38-0.218,5.644c0,1.266,0,2.07,0,2.42l0.175,15.297   c0,0.901-0.232,1.425-0.697,1.569c-0.35,0.116-0.785,0.175-1.309,0.175c-0.843,0-1.307-0.479-1.395-1.438   c-0.174-2.237-0.262-6.414-0.262-12.53s0.088-9.799,0.262-11.049c-0.61,0.029-1.512,0.044-2.702,0.044   c-1.191,0-2.675-0.015-4.445-0.044c-0.465,0-0.827-0.146-1.09-0.437c-0.261-0.289-0.392-0.646-0.392-1.066s0.181-0.835,0.543-1.242   C53.681,85.163,54.126,84.927,54.649,84.87z"/>
	<path fill="#4F3C30" d="M79.646,85.436c0.449-0.29,0.965-0.438,1.547-0.438c0.58,0,0.942,0.336,1.09,1.004   c0.027,3.371,0.087,8.41,0.174,15.123c0,4.097-0.116,7.568-0.35,10.416c-0.059,0.437-0.326,0.821-0.806,1.154   c-0.479,0.335-0.967,0.502-1.461,0.502c-0.813,0-1.22-0.421-1.22-1.265c0.29-2.904,0.436-6.509,0.436-10.81L78.794,86.48   C78.91,86.075,79.192,85.726,79.646,85.436z"/>
</g>
</svg>